<?xml version="1.0" encoding="UTF-8" standalone="no"?>
<svg
   xmlns:dc="http://purl.org/dc/elements/1.1/"
   xmlns:cc="http://creativecommons.org/ns#"
   xmlns:rdf="http://www.w3.org/1999/02/22-rdf-syntax-ns#"
   xmlns:svg="http://www.w3.org/2000/svg"
   xmlns="http://www.w3.org/2000/svg"
   xmlns:sodipodi="http://sodipodi.sourceforge.net/DTD/sodipodi-0.dtd"
   xmlns:inkscape="http://www.inkscape.org/namespaces/inkscape"
   version="1.0"
   width="1132.000000pt"
   height="1132.000000pt"
   viewBox="0 0 1132.000000 1132.000000"
   preserveAspectRatio="xMidYMid meet"
   id="svg18"
   sodipodi:docname="logo.svg"
   inkscape:version="0.92.5 (2060ec1f9f, 2020-04-08)">
  <defs
     id="defs22" />
  <sodipodi:namedview
     pagecolor="#ffffff"
     bordercolor="#666666"
     borderopacity="1"
     objecttolerance="10"
     gridtolerance="10"
     guidetolerance="10"
     inkscape:pageopacity="0"
     inkscape:pageshadow="2"
     inkscape:window-width="1920"
     inkscape:window-height="1015"
     id="namedview20"
     showgrid="false"
     inkscape:zoom="0.15636042"
     inkscape:cx="-380.53107"
     inkscape:cy="754.66667"
     inkscape:window-x="0"
     inkscape:window-y="0"
     inkscape:window-maximized="1"
     inkscape:current-layer="svg18" />
  <metadata
     id="metadata2">
Created by potrace 1.16, written by Peter Selinger 2001-2019
<rdf:RDF>
  <cc:Work
     rdf:about="">
    <dc:format>image/svg+xml</dc:format>
    <dc:type
       rdf:resource="http://purl.org/dc/dcmitype/StillImage" />
    <dc:title></dc:title>
  </cc:Work>
</rdf:RDF>
</metadata>
  <g
     transform="translate(0.000000,1132.000000) scale(0.100000,-0.100000)"
     id="g16"
     stroke="none"
     fill="#000000"
     style="fill:#f4f4f4;fill-opacity:1">
    <path
       d="M1635 11314 c-248 -29 -436 -84 -645 -189 -455 -228 -799 -649 -930 -1139 -56 -210 -60 -261 -60 -838 l0 -528 1350 0 1350 0 0 1350 0 1350 -517 -1 c-285 -1 -531 -4 -548 -5z"
       id="path4"
       style="fill:#f4f4f4;fill-opacity:1" />
    <path
       d="M4310 7815 l0 -3505 3505 0 3505 0 0 2658 c0 1752 -3 2686 -10 2742 -26 217 -80 401 -175 595 -271 558 -798 929 -1425 1005 -56 7 -990 10 -2742 10 l-2658 0 0 -3505z"
       id="path6"
       style="fill:#f4f4f4;fill-opacity:1" />
    <path
       d="M0 5660 l0 -1350 1350 0 1350 0 0 1350 0 1350 -1350 0 -1350 0 0 -1350z"
       id="path8"
       style="fill:#f4f4f4;fill-opacity:1" />
    <path
       d="M3 2128 c3 -540 5 -579 25 -673 53 -244 165 -506 299 -695 87 -123 310 -346 433 -433 189 -134 451 -246 695 -299 94 -20 133 -22 673 -25 l572 -4 0 1350 0 1351 -1351 0 -1350 0 4 -572z"
       id="path10"
       style="fill:#f4f4f4;fill-opacity:1" />
    <path
       d="M4310 1350 l0 -1350 1350 0 1350 0 0 1350 0 1350 -1350 0 -1350 0 0 -1350z"
       id="path12"
       style="fill:#f4f4f4;fill-opacity:1" />
    <path
       d="M8620 1350 l0 -1350 528 0 c577 0 628 4 838 60 490 131 911 475 1139 930 84 168 130 303 172 510 12 60 16 185 20 638 l4 562 -1350 0 -1351 0 0 -1350z"
       id="path14"
       style="fill:#f4f4f4;fill-opacity:1" />
  </g>
</svg>
